<svg width="780" height="780" viewBox="0 0 780 780" fill="none" xmlns="http://www.w3.org/2000/svg">
<rect width="780" height="780" rx="166.206" fill="#C0BBDA"/>
<path d="M400 0H613.794C705.587 0 780 74.4131 780 166.206V613.794C780 705.587 705.587 780 613.794 780H400V0Z" fill="#FFAD00"/>
<g clip-path="url(#clip0_22_130)">
<path d="M400.019 682V97C372.158 133.045 360.056 156.784 350.551 193.214C343.437 180.773 339.651 170.45 331.489 149.645C311.232 175.982 302.136 194.074 295.636 236.783C238.178 255.342 207.754 275.123 189.437 339.805L120 365.673L189.437 389.727C207.243 411.634 221.25 445.682 220.752 453.718C231.091 504.649 241.443 524.75 263.867 552.202C282.68 573.769 298.62 583.437 333.515 604.603L334.666 605.301C381.785 637.178 387.622 654.463 400.019 682Z" fill="#1B283A"/>
<path d="M400 130.5V416.5H398.178C392.128 399.038 387.389 390.524 376.314 376.097C360.589 358.801 352.08 348.52 337.596 330.7C310.592 292.125 305.896 231.007 328.03 192.24C339.811 218.438 346.839 233.007 361.282 256.249C364.265 201.745 371.314 171.702 400 130.5Z" fill="#FFAD00"/>
<path d="M294.708 256.298C239.776 276.971 221.042 298.151 206.209 350.696C214.905 362.808 214.022 369.725 208.479 384.281C222.989 403.759 228.05 414.663 233.894 430.572C247.39 487.866 257.366 513.686 282.909 544.486C309.309 566.298 325.791 577.444 360.516 598.493C372.458 606.924 378.288 612.652 387.292 622.093H390.469C390.469 621.868 390.41 483.576 389.107 455.534C387.802 427.47 373.397 402.942 343.269 369.304C310.321 331.783 298.129 307.778 294.708 256.298ZM276.101 335.72C288.634 335.72 298.793 345.88 298.793 358.412C298.793 370.945 288.633 381.104 276.101 381.104C263.569 381.103 253.41 370.944 253.41 358.412C253.41 345.88 263.569 335.72 276.101 335.72Z" fill="#C0BBDA"/>
</g>
<path d="M400 682V97C427.862 133.045 439.963 156.784 449.469 193.214C456.582 180.773 460.369 170.45 468.53 149.645C488.787 175.982 497.884 194.074 504.383 236.783C561.842 255.342 592.265 275.123 610.582 339.805L680.019 365.673L610.582 389.727C592.776 411.634 578.769 445.682 579.267 453.718C568.928 504.649 558.576 524.75 536.152 552.202C517.34 573.769 501.4 583.437 466.504 604.603L465.353 605.301C418.235 637.178 412.397 654.463 400 682Z" fill="#1B283A"/>
<path d="M400 130.584V416.503H401.815C407.843 399.046 412.565 390.534 423.6 376.112C439.267 358.821 447.745 348.543 462.176 330.728C489.081 292.164 493.759 231.063 471.707 192.306C459.969 218.498 452.967 233.062 438.576 256.298C435.604 201.809 428.581 171.775 400 130.584Z" fill="#FF7800"/>
<path d="M505.292 256.298C560.224 276.971 578.958 298.151 593.791 350.696C585.095 362.808 585.978 369.725 591.521 384.281C577.011 403.759 571.95 414.663 566.106 430.572C552.61 487.866 542.634 513.686 517.091 544.486C490.691 566.298 474.209 577.444 439.484 598.493C427.542 606.924 421.712 612.652 412.708 622.093H409.531C409.531 621.868 409.59 483.574 410.893 455.533C412.198 427.47 426.603 402.942 456.731 369.304C489.679 331.783 501.871 307.778 505.292 256.298ZM523.899 335.72C511.366 335.72 501.207 345.88 501.207 358.412C501.207 370.945 511.367 381.104 523.899 381.104C536.431 381.103 546.59 370.944 546.59 358.412C546.59 345.88 536.431 335.72 523.899 335.72Z" fill="#FF7600"/>
<defs>
<clipPath id="clip0_22_130">
<rect width="334" height="585" fill="white" transform="matrix(-1 0 0 1 400 97)"/>
</clipPath>
</defs>
</svg>
